<svg width="21" height="21" viewBox="0 0 21 21" fill="none" xmlns="http://www.w3.org/2000/svg">
<path d="M4.02461 8.51777H3.12578C2.64901 8.51777 2.19177 8.32838 1.85465 7.99125C1.51752 7.65413 1.32813 7.19689 1.32812 6.72012V3.1248C1.32812 2.64804 1.51752 2.1908 1.85465 1.85367C2.19177 1.51654 2.64901 1.32715 3.12578 1.32715H17.507C17.9838 1.32715 18.441 1.51654 18.7782 1.85367C19.1153 2.1908 19.3047 2.64804 19.3047 3.1248V6.72012C19.3047 7.19689 19.1153 7.65413 18.7782 7.99125C18.441 8.32838 17.9838 8.51777 17.507 8.51777H16.6082" stroke="white" stroke-width="2.05263" stroke-linecap="round" stroke-linejoin="round"/>
<path d="M4.02461 12.1128H3.12578C2.64901 12.1128 2.19177 12.3022 1.85465 12.6393C1.51752 12.9764 1.32813 13.4337 1.32812 13.9104V17.5058C1.32813 17.9825 1.51752 18.4398 1.85465 18.7769C2.19177 19.114 2.64901 19.3034 3.12578 19.3034H17.507C17.9838 19.3034 18.441 19.114 18.7782 18.7769C19.1153 18.4398 19.3047 17.9825 19.3047 17.5058V13.9104C19.3047 13.4337 19.1153 12.9764 18.7782 12.6393C18.441 12.3022 17.9838 12.1128 17.507 12.1128H16.6082" stroke="white" stroke-width="2.05263" stroke-linecap="round" stroke-linejoin="round"/>
<path d="M4.92285 4.92261H4.9338" stroke="white" stroke-width="2.05263" stroke-linecap="round" stroke-linejoin="round"/>
<path d="M4.92285 15.7083H4.9338" stroke="white" stroke-width="2.05263" stroke-linecap="round" stroke-linejoin="round"/>
<path d="M10.3166 13.0116C11.8058 13.0116 13.0131 11.8044 13.0131 10.3151C13.0131 8.82591 11.8058 7.61865 10.3166 7.61865C8.82737 7.61865 7.62012 8.82591 7.62012 10.3151C7.62012 11.8044 8.82737 13.0116 10.3166 13.0116Z" stroke="white" stroke-width="2.05263" stroke-linecap="round" stroke-linejoin="round"/>
<path d="M10.3164 6.71997V7.6188" stroke="white" stroke-width="2.05263" stroke-linecap="round" stroke-linejoin="round"/>
<path d="M10.3164 13.0122V13.911" stroke="white" stroke-width="2.05263" stroke-linecap="round" stroke-linejoin="round"/>
<path d="M13.9115 10.3154H13.0127" stroke="white" stroke-width="2.05263" stroke-linecap="round" stroke-linejoin="round"/>
<path d="M7.62051 10.3154H6.72168" stroke="white" stroke-width="2.05263" stroke-linecap="round" stroke-linejoin="round"/>
<path d="M13.0126 7.61865L12.2217 8.40962" stroke="white" stroke-width="2.05263" stroke-linecap="round" stroke-linejoin="round"/>
<path d="M8.41109 12.2211L7.62012 13.012" stroke="white" stroke-width="2.05263" stroke-linecap="round" stroke-linejoin="round"/>
<path d="M13.0126 13.012L12.2217 12.2211" stroke="white" stroke-width="2.05263" stroke-linecap="round" stroke-linejoin="round"/>
<path d="M8.41109 8.40962L7.62012 7.61865" stroke="white" stroke-width="2.05263" stroke-linecap="round" stroke-linejoin="round"/>
</svg>
