<svg width="28" height="28" viewBox="0 0 28 28" fill="none" xmlns="http://www.w3.org/2000/svg">
<path d="M3.73684 12.3636C3.73684 11.7087 3.73684 11.3812 3.82126 11.0796C3.89603 10.8124 4.01892 10.5612 4.18389 10.3381C4.37012 10.0863 4.62862 9.88529 5.14562 9.48318L12.8798 3.46769C13.2805 3.15608 13.4808 3.00028 13.702 2.94039C13.8971 2.88755 14.1029 2.88755 14.298 2.94039C14.5192 3.00028 14.7195 3.15608 15.1202 3.46769L22.8544 9.48318C23.3714 9.88529 23.6299 10.0863 23.8161 10.3381C23.9811 10.5612 24.104 10.8124 24.1787 11.0796C24.2632 11.3812 24.2632 11.7087 24.2632 12.3636V20.614C24.2632 21.8913 24.2632 22.53 24.0146 23.0178C23.7959 23.447 23.447 23.7959 23.0179 24.0145C22.53 24.2631 21.8913 24.2631 20.614 24.2631H7.38596C6.10865 24.2631 5.46999 24.2631 4.98212 24.0145C4.55298 23.7959 4.20408 23.447 3.98542 23.0178C3.73684 22.53 3.73684 21.8913 3.73684 20.614V12.3636Z" stroke="white" stroke-width="2.73684" stroke-linecap="round" stroke-linejoin="round"/>
</svg>
