<svg width="21" height="20" viewBox="0 0 21 20" fill="none" xmlns="http://www.w3.org/2000/svg">
<path d="M15.8421 13.5003C17.1703 14.1675 18.309 15.2382 19.1402 16.5772C19.3048 16.8423 19.3871 16.9749 19.4156 17.1585C19.4734 17.5315 19.2183 17.9902 18.8708 18.1378C18.6998 18.2105 18.5075 18.2105 18.1228 18.2105M14.0175 9.57323C15.3693 8.90147 16.2982 7.50656 16.2982 5.89469C16.2982 4.28282 15.3693 2.88792 14.0175 2.21616M12.193 5.89469C12.193 8.16197 10.355 9.99996 8.08772 9.99996C5.82044 9.99996 3.98246 8.16197 3.98246 5.89469C3.98246 3.62742 5.82044 1.78943 8.08772 1.78943C10.355 1.78943 12.193 3.62742 12.193 5.89469ZM1.75579 16.3297C3.21024 14.1459 5.50539 12.7368 8.08772 12.7368C10.67 12.7368 12.9652 14.1459 14.4196 16.3297C14.7383 16.8081 14.8976 17.0473 14.8793 17.3529C14.865 17.5908 14.709 17.8821 14.5189 18.0258C14.2747 18.2105 13.9389 18.2105 13.2673 18.2105H2.90811C2.23651 18.2105 1.9007 18.2105 1.65654 18.0258C1.46643 17.8821 1.31047 17.5908 1.29618 17.3529C1.27784 17.0473 1.43716 16.8081 1.75579 16.3297Z" stroke="#27282E" stroke-width="1.91579" stroke-linecap="round" stroke-linejoin="round"/>
</svg>
