<svg width="20" height="20" viewBox="0 0 20 20" fill="none" xmlns="http://www.w3.org/2000/svg">
<path d="M9.77016 12.5801C11.1993 12.5801 12.3579 11.3952 12.3579 9.93362C12.3579 8.47199 11.1993 7.28711 9.77016 7.28711C8.34102 7.28711 7.18246 8.47199 7.18246 9.93362C7.18246 11.3952 8.34102 12.5801 9.77016 12.5801Z" stroke="#27282E" stroke-width="1.91579" stroke-miterlimit="10" stroke-linecap="round" stroke-linejoin="round"/>
<path d="M1.14443 10.7087V9.15612C1.14443 8.23866 1.87761 7.48 2.7833 7.48C4.34455 7.48 4.98285 6.35082 4.19791 4.96581C3.74938 4.17186 4.01677 3.13972 4.80171 2.68099L6.29395 1.80764C6.97537 1.39302 7.85519 1.64003 8.2606 2.33694L8.35548 2.50456C9.13179 3.88956 10.4084 3.88956 11.1933 2.50456L11.2882 2.33694C11.6936 1.64003 12.5734 1.39302 13.2549 1.80764L14.7471 2.68099C15.532 3.13972 15.7994 4.17186 15.3509 4.96581C14.566 6.35082 15.2043 7.48 16.7655 7.48C17.6626 7.48 18.4044 8.22984 18.4044 9.15612V10.7087C18.4044 11.6262 17.6712 12.3849 16.7655 12.3849C15.2043 12.3849 14.566 13.514 15.3509 14.899C15.7994 15.7018 15.532 16.7251 14.7471 17.1839L13.2549 18.0572C12.5734 18.4718 11.6936 18.2248 11.2882 17.5279L11.1933 17.3603C10.417 15.9753 9.14042 15.9753 8.35548 17.3603L8.2606 17.5279C7.85519 18.2248 6.97537 18.4718 6.29395 18.0572L4.80171 17.1839C4.01677 16.7251 3.74938 15.693 4.19791 14.899C4.98285 13.514 4.34455 12.3849 2.7833 12.3849C1.87761 12.3849 1.14443 11.6262 1.14443 10.7087Z" stroke="#27282E" stroke-width="1.91579" stroke-miterlimit="10" stroke-linecap="round" stroke-linejoin="round"/>
</svg>
