<svg width="28" height="28" viewBox="0 0 28 28" fill="none" xmlns="http://www.w3.org/2000/svg">
<path d="M3.73682 12.3636C3.73682 11.7087 3.73682 11.3812 3.82123 11.0796C3.89601 10.8124 4.0189 10.5612 4.18386 10.3381C4.3701 10.0863 4.62859 9.88529 5.14559 9.48318L12.8798 3.46769C13.2804 3.15608 13.4808 3.00028 13.7019 2.94039C13.8971 2.88755 14.1028 2.88755 14.298 2.94039C14.5192 3.00028 14.7195 3.15608 15.1201 3.46769L22.8544 9.48318C23.3714 9.88529 23.6299 10.0863 23.8161 10.3381C23.981 10.5612 24.1039 10.8124 24.1787 11.0796C24.2631 11.3812 24.2631 11.7087 24.2631 12.3636V20.614C24.2631 21.8913 24.2631 22.53 24.0145 23.0178C23.7959 23.447 23.447 23.7959 23.0178 24.0145C22.53 24.2631 21.8913 24.2631 20.614 24.2631H7.38594C6.10863 24.2631 5.46997 24.2631 4.9821 24.0145C4.55296 23.7959 4.20406 23.447 3.9854 23.0178C3.73682 22.53 3.73682 21.8913 3.73682 20.614V12.3636Z" stroke="#141911" stroke-width="2.73684" stroke-linecap="round" stroke-linejoin="round"/>
</svg>
