<svg width="23" height="22" viewBox="0 0 23 22" fill="none" xmlns="http://www.w3.org/2000/svg">
<path d="M16.8421 14.5004C18.1703 15.1676 19.309 16.2383 20.1402 17.5773C20.3048 17.8424 20.3871 17.975 20.4156 18.1586C20.4734 18.5317 20.2183 18.9903 19.8708 19.138C19.6998 19.2106 19.5075 19.2106 19.1228 19.2106M15.0175 10.5733C16.3693 9.90159 17.2982 8.50669 17.2982 6.89481C17.2982 5.28294 16.3693 3.88804 15.0175 3.21628M13.193 6.89481C13.193 9.16209 11.355 11.0001 9.08772 11.0001C6.82044 11.0001 4.98246 9.16209 4.98246 6.89481C4.98246 4.62754 6.82044 2.78955 9.08772 2.78955C11.355 2.78955 13.193 4.62754 13.193 6.89481ZM2.75579 17.3298C4.21024 15.146 6.50539 13.7369 9.08772 13.7369C11.67 13.7369 13.9652 15.146 15.4196 17.3298C15.7383 17.8082 15.8976 18.0474 15.8793 18.353C15.865 18.5909 15.709 18.8822 15.5189 19.026C15.2747 19.2106 14.9389 19.2106 14.2673 19.2106H3.90811C3.23651 19.2106 2.9007 19.2106 2.65654 19.026C2.46643 18.8822 2.31047 18.5909 2.29618 18.353C2.27784 18.0474 2.43716 17.8082 2.75579 17.3298Z" stroke="white" stroke-width="1.91579" stroke-linecap="round" stroke-linejoin="round"/>
</svg>
